[Header]
FileType HTR
DataType HTRS
FileVersion 1
NumSegments 64
NumFrames 4
DataFrameRate 24
EulerRotationOrder ZYX
CalibrationUnits mm
RotationUnits Degrees
GlobalAxisofGravity Y
BoneLengthAxis Y
ScaleFactor 1.0
[SegmentNames&Hierarchy]
Hips	GLOBAL
Spine	Hips
Spine1	Spine
Spine2	Spine1
Neck	Spine2
Head	Neck
LeftEye	Head
RightEye	Head
LeftShoulder	Spine2
LeftArm	LeftShoulder
LeftForeArm	LeftArm
LeftHand	LeftForeArm
LeftHandThumb1	LeftHand
LeftHandThumb2	LeftHandThumb1
LeftHandThumb3	LeftHandThumb2
LeftHandThumb4	LeftHandThumb3
LeftHandIndex1	LeftHand
LeftHandIndex2	LeftHandIndex1
LeftHandIndex3	LeftHandIndex2
LeftHandIndex4	LeftHandIndex3
LeftHandMiddle1	LeftHand
LeftHandMiddle2	LeftHandMiddle1
LeftHandMiddle3	LeftHandMiddle2
LeftHandMiddle4	LeftHandMiddle3
LeftHandRing1	LeftHand
LeftHandRing2	LeftHandRing1
LeftHandRing3	LeftHandRing2
LeftHandRing4	LeftHandRing3
LeftHandPinky1	LeftHand
LeftHandPinky2	LeftHandPinky1
LeftHandPinky3	LeftHandPinky2
LeftHandPinky4	LeftHandPinky3
RightShoulder	Spine2
RightArm	RightShoulder
RightForeArm	RightArm
RightHand	RightForeArm
RightHandPinky1	RightHand
RightHandPinky2	RightHandPinky1
RightHandPinky3	RightHandPinky2
RightHandPinky4	RightHandPinky3
RightHandRing1	RightHand
RightHandRing2	RightHandRing1
RightHandRing3	RightHandRing2
RightHandRing4	RightHandRing3
RightHandMiddle1	RightHand
RightHandMiddle2	RightHandMiddle1
RightHandMiddle3	RightHandMiddle2
RightHandMiddle4	RightHandMiddle3
RightHandIndex1	RightHand
RightHandIndex2	RightHandIndex1
RightHandIndex3	RightHandIndex2
RightHandIndex4	RightHandIndex3
RightHandThumb1	RightHand
RightHandThumb2	RightHandThumb1
RightHandThumb3	RightHandThumb2
RightHandThumb4	RightHandThumb3
LeftUpLeg	Hips
LeftLeg	LeftUpLeg
LeftFoot	LeftLeg
LeftToeBase	LeftFoot
RightUpLeg	Hips
RightLeg	RightUpLeg
RightFoot	RightLeg
RightToeBase	RightFoot
[BasePosition]
Hips	0	0	0	0	0	0	1
Spine	0	0	0	0	0	0	1
Spine1	0	0	0	0	0	0	1
Spine2	0	0	0	0	0	0	1
Neck	0	0	0	0	0	0	1
Head	0	0	0	0	0	0	1
LeftEye	0	0	0	0	0	0	1
RightEye	0	0	0	0	0	0	1
LeftShoulder	0	0	0	0	0	0	1
LeftArm	0	0	0	0	0	0	1
LeftForeArm	0	0	0	0	0	0	1
LeftHand	0	0	0	0	0	0	1
LeftHandThumb1	0	0	0	0	0	0	1
LeftHandThumb2	0	0	0	0	0	0	1
LeftHandThumb3	0	0	0	0	0	0	1
LeftHandThumb4	0	0	0	0	0	0	1
LeftHandIndex1	0	0	0	0	0	0	1
LeftHandIndex2	0	0	0	0	0	0	1
LeftHandIndex3	0	0	0	0	0	0	1
LeftHandIndex4	0	0	0	0	0	0	1
LeftHandMiddle1	0	0	0	0	0	0	1
LeftHandMiddle2	0	0	0	0	0	0	1
LeftHandMiddle3	0	0	0	0	0	0	1
LeftHandMiddle4	0	0	0	0	0	0	1
LeftHandRing1	0	0	0	0	0	0	1
LeftHandRing2	0	0	0	0	0	0	1
LeftHandRing3	0	0	0	0	0	0	1
LeftHandRing4	0	0	0	0	0	0	1
LeftHandPinky1	0	0	0	0	0	0	1
LeftHandPinky2	0	0	0	0	0	0	1
LeftHandPinky3	0	0	0	0	0	0	1
LeftHandPinky4	0	0	0	0	0	0	1
RightShoulder	0	0	0	0	0	0	1
RightArm	0	0	0	0	0	0	1
RightForeArm	0	0	0	0	0	0	1
RightHand	0	0	0	0	0	0	1
RightHandPinky1	0	0	0	0	0	0	1
RightHandPinky2	0	0	0	0	0	0	1
RightHandPinky3	0	0	0	0	0	0	1
RightHandPinky4	0	0	0	0	0	0	1
RightHandRing1	0	0	0	0	0	0	1
RightHandRing2	0	0	0	0	0	0	1
RightHandRing3	0	0	0	0	0	0	1
RightHandRing4	0	0	0	0	0	0	1
RightHandMiddle1	0	0	0	0	0	0	1
RightHandMiddle2	0	0	0	0	0	0	1
RightHandMiddle3	0	0	0	0	0	0	1
RightHandMiddle4	0	0	0	0	0	0	1
RightHandIndex1	0	0	0	0	0	0	1
RightHandIndex2	0	0	0	0	0	0	1
RightHandIndex3	0	0	0	0	0	0	1
RightHandIndex4	0	0	0	0	0	0	1
RightHandThumb1	0	0	0	0	0	0	1
RightHandThumb2	0	0	0	0	0	0	1
RightHandThumb3	0	0	0	0	0	0	1
RightHandThumb4	0	0	0	0	0	0	1
LeftUpLeg	0	0	0	0	0	0	1
LeftLeg	0	0	0	0	0	0	1
LeftFoot	0	0	0	0	0	0	1
LeftToeBase	0	0	0	0	0	0	1
RightUpLeg	0	0	0	0	0	0	1
RightLeg	0	0	0	0	0	0	1
RightFoot	0	0	0	0	0	0	1
RightToeBase	0	0	0	0	0	0	1
[Hips]
287	826.9865723	880.5119629	506.2214661	202.703476	-81.32746887	-573.112793	1.0
288	833.0358276	867.3302612	529.8518066	202.4167023	-76.99617767	-574.4273071	1.0
289	832.340332	871.4603271	545.2642212	193.4318542	-74.56433105	-566.234314	1.0
290	825.786377	894.0582275	543.9963379	193.5771942	-76.71994019	-565.4663086	1.0
[Spine]
287	0	101.8159943	1.315000057	15.58883762	-1.743092537	-25.72665215	1.0
288	0	101.8159943	1.315000057	16.58953094	2.822491884	-23.90178871	1.0
289	0	101.8159943	1.315000057	18.62965393	4.12537384	-19.18095207	1.0
290	0	101.8159943	1.315000057	19.63709831	0.9520773888	-19.04241753	1.0
[Spine1]
287	0	100.8349991	-10.00800037	1.936078191	-0.8686790466	0.004864864983	1.0
288	0	100.8349991	-10.00800037	2.885810137	-0.1330622733	-2.29075408	1.0
289	0	100.8349991	-10.00800037	2.322101355	0.3012742102	-3.772213936	1.0
290	0	100.8349991	-10.00800037	1.500751734	-0.2051845938	-2.553295851	1.0
[Spine2]
287	0	91	-13.73399925	1.975116491	-0.7754895091	0.006731863134	1.0
288	0	91	-13.73399925	2.886864424	-0.0740359053	-2.290633202	1.0
289	0	91	-13.73399925	2.326535463	0.2547387779	-3.773813486	1.0
290	0	91	-13.73399925	1.502039433	-0.2435848117	-2.549661398	1.0
[Neck]
287	0	166.7169952	-25.16200066	-3.046989202	2.156344414	-0.6682317853	1.0
288	0	166.7169952	-25.16200066	-4.435900688	1.674458861	-1.421152949	1.0
289	0	166.7169952	-25.16200066	-3.672929525	2.044519901	-2.219806433	1.0
290	0	166.7169952	-25.16200066	-2.590570688	2.803006649	-2.7473526	1.0
[Head]
287	0	96.17900085	16.84999847	3.826064587	7.672027111	10.6863451	1.0
288	0	96.17900085	16.84999847	1.250137448	4.84520483	11.57427216	1.0
289	0	96.17900085	16.84999847	-1.085425854	6.078103065	10.06245136	1.0
290	0	96.17900085	16.84999847	-0.8389580846	9.040001869	9.075077057	1.0
[LeftEye]
287	30.6760006	64.09500122	92.83599854	0	0	0	1.0
288	30.6760006	64.09500122	92.83599854	0	0	0	1.0
289	30.6760006	64.09500122	92.83599854	0	0	0	1.0
290	30.6760006	64.09500122	92.83599854	0	0	0	1.0
[RightEye]
287	-30.6760006	64.09500122	92.83499908	0	0	0	1.0
288	-30.6760006	64.09500122	92.83499908	0	0	0	1.0
289	-30.6760006	64.09500122	92.83499908	0	0	0	1.0
290	-30.6760006	64.09500122	92.83499908	0	0	0	1.0
[LeftShoulder]
287	45.70400238	109.4599991	-26.28000069	2.206595659	-4.416921139	-21.50332069	1.0
288	45.70400238	109.4599991	-26.28000069	1.853081465	-2.633997917	-23.95963287	1.0
289	45.70400238	109.4599991	-26.28000069	1.673523188	-2.262526512	-22.72452545	1.0
290	45.70400238	109.4599991	-26.28000069	1.280580521	-1.403111219	-19.60124397	1.0
[LeftArm]
287	105.923996	-5.24600029	-22.32099915	29.14319038	-52.86991882	-40.18877792	1.0
288	105.923996	-5.24600029	-22.32099915	22.37385178	-52.60684967	-37.31478119	1.0
289	105.923996	-5.24600029	-22.32099915	12.47550488	-53.41212845	-35.54683685	1.0
290	105.923996	-5.24600029	-22.32099915	1.225384951	-56.19086838	-34.17050934	1.0
[LeftForeArm]
287	278.414978	-0.0009999999311	0	3.032280983e-05	-75.10012054	-0.0002235558059	1.0
288	278.414978	-0.0009999999311	0	-1.15018338e-05	-82.39505768	-0.0003004782484	1.0
289	278.414978	-0.0009999999311	0	0.000112934089	-87.44432068	-0.0003036472481	1.0
290	278.414978	-0.0009999999311	0	-0.0002165076585	-88.43548584	-0.0006124912761	1.0
[LeftHand]
287	283.2879944	0	0	28.13106918	9.273210526	14.90986252	1.0
288	283.2879944	0	0	30.0432415	7.504826069	16.98714447	1.0
289	283.2879944	0	0	31.90652084	6.962128162	16.99781418	1.0
290	283.2879944	0	0	32.63402176	8.303016663	16.48792076	1.0
[LeftHandThumb1]
287	24.6609993	-15.75	26.8239994	3.703258753	10.72178364	2.732061863	1.0
288	24.6609993	-15.75	26.8239994	3.429333925	11.19442558	3.988779068	1.0
289	24.6609993	-15.75	26.8239994	3.287532568	11.50618172	4.723960876	1.0
290	24.6609993	-15.75	26.8239994	3.287021399	11.63422394	4.887210846	1.0
[LeftHandThumb2]
287	32.29800034	-18.64699936	18.64699936	1.21139431	-0.1874774247	-1.054784179	1.0
288	32.29800034	-18.64699936	18.64699936	1.211391091	-0.187467128	-1.054780841	1.0
289	32.29800034	-18.64699936	18.64699936	1.211428046	-0.1874228567	-1.05477798	1.0
290	32.29800034	-18.64699936	18.64699936	1.211454034	-0.1873200238	-1.054759502	1.0
[LeftHandThumb3]
287	26.52600098	-15.31499958	15.31499958	-2.911247969	-2.12905097	3.232088327	1.0
288	26.52600098	-15.31499958	15.31499958	-3.293901443	-2.713502884	3.358109713	1.0
289	26.52600098	-15.31499958	15.31499958	-3.659100533	-3.272501945	3.485168695	1.0
290	26.52600098	-15.31499958	15.31499958	-3.839292288	-3.549990654	3.551012039	1.0
[LeftHandThumb4]
287	19.54599953	-11.28499985	11.28499985	0	0	0	1.0
288	19.54599953	-11.28499985	11.28499985	0	0	0	1.0
289	19.54599953	-11.28499985	11.28499985	0	0	0	1.0
290	19.54599953	-11.28499985	11.28499985	0	0	0	1.0
[LeftHandIndex1]
287	91.09299469	-5.170999527	22.60099792	-0.3873314559	-2.586521387	-19.84852028	1.0
288	91.09299469	-5.170999527	22.60099792	-0.1955532581	-2.176959515	-14.20483208	1.0
289	91.09299469	-5.170999527	22.60099792	-0.08571697026	-1.478896022	-9.325951576	1.0
290	91.09299469	-5.170999527	22.60099792	-0.03285877407	-1.027082324	-5.854082584	1.0
[LeftHandIndex2]
287	36.76399994	0	0	-1.610104664e-05	6.018290151e-06	-4.620670552e-06	1.0
288	36.76399994	0	0	1.977773991e-06	5.184384918e-06	-9.421870345e-06	1.0
289	36.76399994	0	0	8.861616152e-06	-9.108925951e-06	-1.820668149e-05	1.0
290	36.76399994	0	0	9.471077647e-06	8.067501767e-06	-8.505400911e-05	1.0
[LeftHandIndex3]
287	28.83100128	0	0	-0.07377613336	1.005423069	-8.393939018	1.0
288	28.83100128	0	0	-0.07429204881	1.008861303	-8.422767639	1.0
289	28.83100128	0	0	-0.07497287542	1.013461471	-8.461362839	1.0
290	28.83100128	0	0	-0.0767814517	1.025571346	-8.563398361	1.0
[LeftHandIndex4]
287	23.92700005	0	0	0	0	0	1.0
288	23.92700005	0	0	0	0	0	1.0
289	23.92700005	0	0	0	0	0	1.0
290	23.92700005	0	0	0	0	0	1.0
[LeftHandMiddle1]
287	95.33399963	0	0	-0.3719256222	4.765436172	-19.07535934	1.0
288	95.33399963	0	0	-0.2058518529	4.77122879	-14.39093304	1.0
289	95.33399963	0	0	-0.08775600046	5.02020216	-9.917881966	1.0
290	95.33399963	0	0	-0.02257366292	5.116384029	-6.423125744	1.0
[LeftHandMiddle2]
287	36.98199844	0	0	-0.002815620275	0.1964287013	-1.63418746	1.0
288	36.98199844	0	0	-0.00022320688	0.05478737131	-0.4556947351	1.0
289	36.98199844	0	0	-1.973034074e-07	-5.551815775e-05	-6.312534242e-05	1.0
290	36.98199844	0	0	8.78033552e-06	-7.502580411e-05	-2.513359505e-05	1.0
[LeftHandMiddle3]
287	29.50900078	0	0	-0.06754402816	0.9622629285	-8.031051636	1.0
288	29.50900078	0	0	-0.0626103282	0.9266421795	-7.731880665	1.0
289	29.50900078	0	0	-0.05967393517	0.9046349525	-7.547109127	1.0
290	29.50900078	0	0	-0.05949298292	0.9031769037	-7.534893036	1.0
[LeftHandMiddle4]
287	28.3390007	0	0	0	0	0	1.0
288	28.3390007	0	0	0	0	0	1.0
289	28.3390007	0	0	0	0	0	1.0
290	28.3390007	0	0	0	0	0	1.0
[LeftHandRing1]
287	91.04499817	-0.4390000105	-18.65100098	-0.2985669971	12.7372303	-19.74905205	1.0
288	91.04499817	-0.4390000105	-18.65100098	-0.1133045927	12.58396244	-14.91130543	1.0
289	91.04499817	-0.4390000105	-18.65100098	0.03034117073	12.43479633	-9.796762466	1.0
290	91.04499817	-0.4390000105	-18.65100098	0.1081068665	12.19105434	-5.456884861	1.0
[LeftHandRing2]
287	31.54000092	0	0	-0.00453147199	0.2497815788	-2.078194141	1.0
288	31.54000092	0	0	-0.0006945031346	0.09775561094	-0.8131783009	1.0
289	31.54000092	0	0	-7.226348316e-06	-1.810970934e-05	-1.440976212e-05	1.0
290	31.54000092	0	0	8.700940271e-07	-8.963498658e-06	-4.417592936e-05	1.0
[LeftHandRing3]
287	29.37700081	0	0	-0.07035414129	0.9819202423	-8.196223259	1.0
288	29.37700081	0	0	-0.06707938015	0.9589572549	-8.003249168	1.0
289	29.37700081	0	0	-0.06511126459	0.9447979927	-7.884298325	1.0
290	29.37700081	0	0	-0.06488503516	0.9430990815	-7.870029449	1.0
[LeftHandRing4]
287	26.47500038	0	0	0	0	0	1.0
288	26.47500038	0	0	0	0	0	1.0
289	26.47500038	0	0	0	0	0	1.0
290	26.47500038	0	0	0	0	0	1.0
[LeftHandPinky1]
287	80.77799988	-4.887000084	-38.06099701	0.1806989759	27.31683731	-21.31194496	1.0
288	80.77799988	-4.887000084	-38.06099701	0.4493763149	26.86535072	-15.17303562	1.0
289	80.77799988	-4.887000084	-38.06099701	0.6500633359	26.28741646	-8.215510368	1.0
290	80.77799988	-4.887000084	-38.06099701	0.7299773693	25.64984512	-2.03798461	1.0
[LeftHandPinky2]
287	36	0	0	0.04270107672	-4.01220417	-0.8601347804	1.0
288	36	0	0	0.02748402022	-4.03836441	-0.6431882381	1.0
289	36	0	0	0.01707919128	-4.056125641	-0.4956032932	1.0
290	36	0	0	0.01660292782	-4.056900501	-0.4891468585	1.0
[LeftHandPinky3]
287	21.14200211	0	0	-0.05696328357	0.8839562535	-7.373596191	1.0
288	21.14200211	0	0	-0.0538279973	0.8594245911	-7.167823315	1.0
289	21.14200211	0	0	-0.05250679702	0.8488206863	-7.078901768	1.0
290	21.14200211	0	0	-0.05319705233	0.8543868661	-7.125610352	1.0
[LeftHandPinky4]
287	19.75699997	0	0	0	0	0	1.0
288	19.75699997	0	0	0	0	0	1.0
289	19.75699997	0	0	0	0	0	1.0
290	19.75699997	0	0	0	0	0	1.0
[RightShoulder]
287	-45.70000076	109.4620056	-26.28000069	0.01848986745	-3.228891134	-1.968070507	1.0
288	-45.70000076	109.4620056	-26.28000069	0.09130872041	-2.501816511	0.7432140708	1.0
289	-45.70000076	109.4620056	-26.28000069	0.1602669209	-1.271153927	-1.452237725	1.0
290	-45.70000076	109.4620056	-26.28000069	0.08477640152	-0.3694862723	-6.560592651	1.0
[RightArm]
287	-105.9280014	-5.248000145	-22.32099915	-60.20127487	18.63163757	34.66560745	1.0
288	-105.9280014	-5.248000145	-22.32099915	-59.0614624	13.70059967	42.54169846	1.0
289	-105.9280014	-5.248000145	-22.32099915	-58.17966461	9.813686371	36.12049103	1.0
290	-105.9280014	-5.248000145	-22.32099915	-55.23151016	10.18854618	23.79255676	1.0
[RightForeArm]
287	-278.414978	0	0	1.525877997e-05	104.6156769	-1.525885455e-05	1.0
288	-278.414978	0	0	-1.525884909e-05	117.5129013	-1.525878906e-05	1.0
289	-278.414978	0	0	0	108.7352142	-1.525878906e-05	1.0
290	-278.414978	0	0	-0.0001141096654	86.66934967	-2.86126633e-05	1.0
[RightHand]
287	-283.2879944	0	0.0009999999311	34.03588867	6.829207897	-21.68669128	1.0
288	-283.2879944	0	0.0009999999311	34.22872162	9.168395996	-25.58158112	1.0
289	-283.2879944	0	0.0009999999311	33.38059998	7.854478359	-24.85897446	1.0
290	-283.2879944	0	0.0009999999311	30.85658073	5.108742237	-20.55326271	1.0
[RightHandPinky1]
287	-80.76699829	-4.885000229	-38.06000137	0.2908258438	-18.70387459	7.067701817	1.0
288	-80.76699829	-4.885000229	-38.06000137	0.345472157	-17.93819809	0.7677223682	1.0
289	-80.76699829	-4.885000229	-38.06000137	0.3403357267	-17.56799698	-2.24099946	1.0
290	-80.76699829	-4.885000229	-38.06000137	0.3459830582	-17.82515717	-0.1378981471	1.0
[RightHandPinky2]
287	-36	0	0.0009999999311	-1.037837744	-3.651956797	31.73258018	1.0
288	-36	0	0.0009999999311	-0.5902543664	-2.802620411	23.79525375	1.0
289	-36	0	0.0009999999311	-0.2612745762	-1.888015628	15.76911068	1.0
290	-36	0	0.0009999999311	-0.1413955688	-1.395186663	11.58677769	1.0
[RightHandPinky3]
287	-21.14200211	0	0	-0.3045888841	-2.035227537	17.02163887	1.0
288	-21.14200211	0	0	-0.168343395	-1.520785928	12.63253212	1.0
289	-21.14200211	0	0	-0.03412611037	-0.6881477237	5.678228378	1.0
290	-21.14200211	0	0	-2.385179687e-05	0.01842169277	-0.1516714841	1.0
[RightHandPinky4]
287	-19.75699997	0	0	0	0	0	1.0
288	-19.75699997	0	0	0	0	0	1.0
289	-19.75699997	0	0	0	0	0	1.0
290	-19.75699997	0	0	0	0	0	1.0
[RightHandRing1]
287	-91.03599548	-0.4390000105	-18.65100098	0.05887938663	-7.494945049	0.3155625761	1.0
288	-91.03599548	-0.4390000105	-18.65100098	0.03591793031	-6.7044034	-4.192395687	1.0
289	-91.03599548	-0.4390000105	-18.65100098	0.006439964753	-6.225486755	-6.518944263	1.0
290	-91.03599548	-0.4390000105	-18.65100098	0.0188766215	-6.230027199	-5.380208492	1.0
[RightHandRing2]
287	-31.54000092	0	0	-0.07458774745	-1.015771389	8.398298264	1.0
288	-31.54000092	0	0	-0.01502421685	-0.4568941593	3.766521692	1.0
289	-31.54000092	0	0	2.088009069e-06	2.14446473e-07	4.164419079e-05	1.0
290	-31.54000092	0	0	7.822345651e-06	-8.047070878e-06	3.919659139e-05	1.0
[RightHandRing3]
287	-29.37700081	0	0	-3.909889221	-1.247433662	10.33081818	1.0
288	-29.37700081	0	0	-3.28828311	-0.8271166682	6.829900265	1.0
289	-29.37700081	0	0	-2.097737312	-0.2431457639	1.988143563	1.0
290	-29.37700081	0	0	-0.8745272756	0.1821945757	-1.501211524	1.0
[RightHandRing4]
287	-26.47500038	0	0	0	0	0	1.0
288	-26.47500038	0	0	0	0	0	1.0
289	-26.47500038	0	0	0	0	0	1.0
290	-26.47500038	0	0	0	0	0	1.0
[RightHandMiddle1]
287	-95.32500458	0	0	-0.007410038263	1.726616025	-3.134772539	1.0
288	-95.32500458	0	0	-0.05500757322	2.7903862	-7.450161934	1.0
289	-95.32500458	0	0	-0.09867219627	3.527966022	-9.94011116	1.0
290	-95.32500458	0	0	-0.08669061959	3.767197609	-9.421484947	1.0
[RightHandMiddle2]
287	-36.98199844	0	0	-0.005702384748	-0.2815230191	2.319678783	1.0
288	-36.98199844	0	0	2.241053636e-07	-5.506492016e-06	2.903408313e-05	1.0
289	-36.98199844	0	0	9.568216797e-08	-7.198035746e-06	3.017781637e-05	1.0
290	-36.98199844	0	0	5.151529763e-07	-2.175738473e-06	5.654728011e-05	1.0
[RightHandMiddle3]
287	-29.50900078	0	0	-2.963544369	-0.3485378921	2.853918552	1.0
288	-29.50900078	0	0	-2.404724598	-0.09927857667	0.8012837172	1.0
289	-29.50900078	0	0	-1.413766861	0.1915137917	-1.599875689	1.0
290	-29.50900078	0	0	-0.4217891693	0.3288247883	-2.726395845	1.0
[RightHandMiddle4]
287	-28.3390007	0	0.0009999999311	0	0	0	1.0
288	-28.3390007	0	0.0009999999311	0	0	0	1.0
289	-28.3390007	0	0.0009999999311	0	0	0	1.0
290	-28.3390007	0	0.0009999999311	0	0	0	1.0
[RightHandIndex1]
287	-91.08300018	-5.167999744	22.60099792	0.109060213	10.60814381	-2.334170818	1.0
288	-91.08300018	-5.167999744	22.60099792	0.08246040344	12.13252735	-6.989442348	1.0
289	-91.08300018	-5.167999744	22.60099792	0.04777395725	13.26793575	-9.972491264	1.0
290	-91.08300018	-5.167999744	22.60099792	0.05963398889	13.81461525	-10.05860901	1.0
[RightHandIndex2]
287	-36.76399994	0	0	-3.20769891e-06	-0.005717269145	0.04710206762	1.0
288	-36.76399994	0	0	3.070482535e-06	1.612514438e-06	7.29486128e-05	1.0
289	-36.76399994	0	0	-3.360976052e-06	4.524822543e-06	6.017329724e-05	1.0
290	-36.76399994	0	0	-5.907453669e-06	8.015761523e-06	6.577018939e-05	1.0
[RightHandIndex3]
287	-28.83100128	0	0	-0.009847635403	0.3699419498	-3.048939466	1.0
288	-28.83100128	0	0	-0.01490335446	0.455021888	-3.750999451	1.0
289	-28.83100128	0	0	-0.01770683937	0.4960238039	-4.089616776	1.0
290	-28.83100128	0	0	-0.01158746891	0.401384294	-3.308339834	1.0
[RightHandIndex4]
287	-23.92700005	0	0	0	0	0	1.0
288	-23.92700005	0	0	0	0	0	1.0
289	-23.92700005	0	0	0	0	0	1.0
290	-23.92700005	0	0	0	0	0	1.0
[RightHandThumb1]
287	-24.64799881	-15.72700024	26.82600021	4.440823555	-13.57404137	-14.85906601	1.0
288	-24.64799881	-15.72700024	26.82600021	4.932289124	-14.38760376	-15.78577423	1.0
289	-24.64799881	-15.72700024	26.82600021	5.243663311	-14.7322197	-15.99917889	1.0
290	-24.64799881	-15.72700024	26.82600021	5.41677618	-14.52781105	-15.25432491	1.0
[RightHandThumb2]
287	-32.29800034	-18.64699936	18.64699936	2.06025362	0.3373149037	1.679434061	1.0
288	-32.29800034	-18.64699936	18.64699936	2.060293436	0.3385152817	1.675379753	1.0
289	-32.29800034	-18.64699936	18.64699936	2.060348511	0.3396522105	1.671546578	1.0
290	-32.29800034	-18.64699936	18.64699936	2.060389996	0.3393110335	1.672830582	1.0
[RightHandThumb3]
287	-26.52600098	-15.31399918	15.31399918	-4.919136047	5.751144409	-3.367832422	1.0
288	-26.52600098	-15.31399918	15.31399918	-4.772124767	5.524892807	-3.32233119	1.0
289	-26.52600098	-15.31399918	15.31399918	-4.760885239	5.508423805	-3.3199265	1.0
290	-26.52600098	-15.31399918	15.31399918	-4.812629223	5.590593815	-3.33031702	1.0
[RightHandThumb4]
287	-19.54599953	-11.28499985	11.28499985	0	0	0	1.0
288	-19.54599953	-11.28499985	11.28499985	0	0	0	1.0
289	-19.54599953	-11.28499985	11.28499985	0	0	0	1.0
290	-19.54599953	-11.28499985	11.28499985	0	0	0	1.0
[LeftUpLeg]
287	82.07800293	-67.51699829	-15.99599934	3.044118643	-12.71715164	4.946714401	1.0
288	82.07800293	-67.51699829	-15.99599934	2.960022688	-12.20753288	3.362876654	1.0
289	82.07800293	-67.51699829	-15.99599934	4.938871861	-5.648348808	5.425537109	1.0
290	82.07800293	-67.51699829	-15.99599934	6.53699255	-4.671325207	6.281774998	1.0
[LeftLeg]
287	0	-443.7049866	2.845999956	48.58903885	1.72365272	-2.916922569	1.0
288	0	-443.7049866	2.845999956	51.69532013	7.726506233	-6.106548309	1.0
289	0	-443.7049866	2.845999956	50.73204803	5.839030266	-8.51460743	1.0
290	0	-443.7049866	2.845999956	45.21890259	3.326092005	-7.783600807	1.0
[LeftFoot]
287	0	-444.2789917	-29.8219986	-42.98262024	1.817188263	-13.40845966	1.0
288	0	-444.2789917	-29.8219986	-44.72732925	2.036961555	-10.25923824	1.0
289	0	-444.2789917	-29.8219986	-44.33944702	2.35324192	-8.039082527	1.0
290	0	-444.2789917	-29.8219986	-40.93609619	2.052134752	-8.028362274	1.0
[LeftToeBase]
287	0	-87.28699493	107.1060028	-1.292095542	-2.457073242e-05	2.635680403e-06	1.0
288	0	-87.28699493	107.1060028	-1.373034596	-1.690031058e-05	3.264157385e-06	1.0
289	0	-87.28699493	107.1060028	-1.4360255	1.564661397e-05	-4.286196997e-08	1.0
290	0	-87.28699493	107.1060028	-1.848968148	-2.385698826e-05	2.212173513e-06	1.0
[RightUpLeg]
287	-82.07800293	-67.51699829	-15.99599934	-32.10879517	5.17534399	-16.2287159	1.0
288	-82.07800293	-67.51699829	-15.99599934	-32.73602676	1.186753035	-16.66410255	1.0
289	-82.07800293	-67.51699829	-15.99599934	-31.39399529	-4.16173315	-14.59615421	1.0
290	-82.07800293	-67.51699829	-15.99599934	-29.00089645	-5.827912807	-16.23839951	1.0
[RightLeg]
287	0	-443.7049866	2.861999989	13.48758411	-7.760622025	-11.00145817	1.0
288	0	-443.7049866	2.861999989	11.73696518	-8.316989899	-9.909295082	1.0
289	0	-443.7049866	2.861999989	9.138865471	-9.239261627	-5.784536362	1.0
290	0	-443.7049866	2.861999989	8.349882126	-9.791788101	-2.063981771	1.0
[RightFoot]
287	0	-444.2770081	-29.83799934	-12.32230854	-23.5920105	3.815140247	1.0
288	0	-444.2770081	-29.83799934	-7.580889225	-19.46766472	-0.9646647573	1.0
289	0	-444.2770081	-29.83799934	-10.00887871	-12.44971848	0.8187721372	1.0
290	0	-444.2770081	-29.83799934	-8.778912544	-14.9752121	3.983819485	1.0
[RightToeBase]
287	0	-87.28699493	107.1060028	7.295808315	-3.785006993e-05	6.588017641e-06	1.0
288	0	-87.28699493	107.1060028	7.968467236	6.303411737e-06	3.738933174e-06	1.0
289	0	-87.28699493	107.1060028	8.954293251	-5.747378509e-06	-1.451995286e-05	1.0
290	0	-87.28699493	107.1060028	9.633199692	1.092693947e-05	8.799573152e-06	1.0
[EndOfFile]
